<svg id="Layer_1" data-name="Layer 1" xmlns="http://www.w3.org/2000/svg" viewBox="0 0 209.2 34.85"><defs><style>.cls-1{fill:#1a1a1a;}.cls-2{fill:#fe3e57;}</style></defs><path class="cls-1" d="M493,409.64v-34.3h.55l16.23,19,16.07-19h.55v34.3h-5V392l.2-4.9a31.83,31.83,0,0,1-3,4.1L510,401.5h-.6l-8.54-10.28-3-4.1c.14,2,.2,3.63.2,4.9v17.62Z" transform="translate(-492.97 -375.24)"/><path class="cls-1" d="M583.79,399.16,591,409.64h-6.09l-6.09-8.94a27.87,27.87,0,0,1-2.85.2h-3.19v8.74h-5.3V375.69H576q7,0,10.81,3.39a11.79,11.79,0,0,1,3.82,9.29Q590.58,396.16,583.79,399.16Zm-11-2.8h3q9.43,0,9.44-8t-9.44-8h-3Z" transform="translate(-492.97 -375.24)"/><path class="cls-2" d="M613.55,410.09a17,17,0,0,1-12.38-4.94,17.9,17.9,0,0,1,0-24.92,17,17,0,0,1,12.38-4.94q9.09,0,13.58,6.74l-4,2.9q-3.15-4.9-9.54-4.9a11.35,11.35,0,0,0-8.64,3.6,12.64,12.64,0,0,0-3.39,9,12.77,12.77,0,0,0,3.39,9.07A12.11,12.11,0,0,0,623.59,400l4,2.85Q622.89,410.1,613.55,410.09Z" transform="translate(-492.97 -375.24)"/><path class="cls-2" d="M633.62,409.64V375.69h5.29V391h16.33V375.69h5.29v33.95h-5.29v-14H638.91v14Z" transform="translate(-492.97 -375.24)"/><path class="cls-2" d="M684.7,410.09a17.18,17.18,0,0,1-12.46-4.94,17.91,17.91,0,0,1,0-25,18.11,18.11,0,0,1,24.86,0,17.91,17.91,0,0,1,0,25A17.1,17.1,0,0,1,684.7,410.09ZM676,401.73a12.26,12.26,0,0,0,17.4,0,13.78,13.78,0,0,0,0-18.13,12.26,12.26,0,0,0-17.4,0,13.72,13.72,0,0,0,0,18.13Z" transform="translate(-492.97 -375.24)"/><polygon class="cls-1" points="54.07 0.1 53.47 0.1 38.94 34.4 44.04 34.4 53.67 9.54 63.46 34.4 68.95 34.4 54.07 0.1"/></svg>